HIERARCHY
ROOT Hips
{
	OFFSET 0.000000 0.000000 0.000000
	CHANNELS 6 Xposition Yposition Zposition Zrotation Yrotation Xrotation 
	JOINT LHipJoint
	{
		OFFSET 0.000000 0.000000 0.000000
		CHANNELS 3 Zrotation Yrotation Xrotation
		JOINT LeftUpLeg
		{
			OFFSET 1.363060 -1.794630 0.839290
			CHANNELS 3 Zrotation Yrotation Xrotation
			JOINT LeftLeg
			{
				OFFSET 2.448110 -6.726130 0.000000
				CHANNELS 3 Zrotation Yrotation Xrotation
				JOINT LeftFoot
				{
					OFFSET 2.562200 -7.039590 0.000000
					CHANNELS 3 Zrotation Yrotation Xrotation
					JOINT LeftToeBase
					{
						OFFSET 0.157640 -0.433110 2.322550
						CHANNELS 3 Zrotation Yrotation Xrotation
						End Site
						{
							OFFSET 0.000000 0.000000 0.000000
						}
					}
				}
			}
		}
	}
	JOINT RHipJoint
	{
		OFFSET 0.000000 0.000000 0.000000
		CHANNELS 3 Zrotation Yrotation Xrotation
		JOINT RightUpLeg
		{
			OFFSET -1.305520 -1.794630 0.839290
			CHANNELS 3 Zrotation Yrotation Xrotation
			JOINT RightLeg
			{
				OFFSET -2.542530 -6.985550 0.000000
				CHANNELS 3 Zrotation Yrotation Xrotation
				JOINT RightFoot
				{
					OFFSET -2.568260 -7.056230 0.000000
					CHANNELS 3 Zrotation Yrotation Xrotation
					JOINT RightToeBase
					{
						OFFSET -0.164730 -0.452590 2.363150
						CHANNELS 3 Zrotation Yrotation Xrotation
						End Site
						{
							OFFSET 0.000000 0.000000 0.000000
						}
					}
				}
			}
		}
	}
	JOINT LowerBack
	{
		OFFSET 0.000000 0.000000 0.000000
		CHANNELS 3 Zrotation Yrotation Xrotation
		JOINT Spine
		{
			OFFSET 0.028270 2.035590 -0.193380
			CHANNELS 3 Zrotation Yrotation Xrotation
			JOINT Spine1
			{
				OFFSET 0.056720 2.048850 -0.042750
				CHANNELS 3 Zrotation Yrotation Xrotation
				JOINT Neck
				{
					OFFSET 0.000000 0.000000 0.000000
					CHANNELS 3 Zrotation Yrotation Xrotation
					JOINT Neck1
					{
						OFFSET -0.054170 1.746240 0.172020
						CHANNELS 3 Zrotation Yrotation Xrotation
						JOINT Head
						{
							OFFSET 0.104070 1.761360 -0.123970
							CHANNELS 3 Zrotation Yrotation Xrotation
							End Site
							{
								OFFSET 0.000000 0.000000 0.000000
							}
						}
					}
				}
				JOINT LeftShoulder
				{
					OFFSET 0.000000 0.000000 0.000000
					CHANNELS 3 Zrotation Yrotation Xrotation
					JOINT LeftArm
					{
						OFFSET 3.362410 1.200890 -0.311210
						CHANNELS 3 Zrotation Yrotation Xrotation
						JOINT LeftForeArm
						{
							OFFSET 4.983000 -0.000000 -0.000000
							CHANNELS 3 Zrotation Yrotation Xrotation
							JOINT LeftHand
							{
								OFFSET 3.483560 -0.000000 -0.000000
								CHANNELS 3 Zrotation Yrotation Xrotation
								JOINT LeftFingerBase
								{
									OFFSET 0.000000 0.000000 0.000000
									CHANNELS 3 Zrotation Yrotation Xrotation
									JOINT LeftHandIndex1
									{
										OFFSET 0.715260 -0.000000 -0.000000
										CHANNELS 3 Zrotation Yrotation Xrotation
										End Site
										{
											OFFSET 0.000000 0.000000 0.000000
										}
									}
								}
								JOINT LThumb
								{
									OFFSET 0.000000 0.000000 0.000000
									CHANNELS 3 Zrotation Yrotation Xrotation
									End Site
									{
										OFFSET 0.000000 0.000000 0.000000
									}
								}
							}
						}
					}
				}
				JOINT RightShoulder
				{
					OFFSET 0.000000 0.000000 0.000000
					CHANNELS 3 Zrotation Yrotation Xrotation
					JOINT RightArm
					{
						OFFSET -3.136600 1.374050 -0.404650
						CHANNELS 3 Zrotation Yrotation Xrotation
						JOINT RightForeArm
						{
							OFFSET -5.241900 -0.000000 -0.000000
							CHANNELS 3 Zrotation Yrotation Xrotation
							JOINT RightHand
							{
								OFFSET -3.444170 -0.000000 -0.000000
								CHANNELS 3 Zrotation Yrotation Xrotation
								JOINT RightFingerBase
								{
									OFFSET 0.000000 0.000000 0.000000
									CHANNELS 3 Zrotation Yrotation Xrotation
									JOINT RightHandIndex1
									{
										OFFSET -0.622530 -0.000000 -0.000000
										CHANNELS 3 Zrotation Yrotation Xrotation
										End Site
										{
											OFFSET 0.000000 0.000000 0.000000
										}
									}
								}
								JOINT RThumb
								{
									OFFSET 0.000000 0.000000 0.000000
									CHANNELS 3 Zrotation Yrotation Xrotation
									End Site
									{
										OFFSET 0.000000 0.000000 0.000000
									}
								}
							}
						}
					}
				}
			}
		}
	}
}
MOTION
Frames: 4
Frame Time: 0.008333
5.601373 17.692531 1.521237 0.258828 4.042920 25.251037 2.955244 1.135073 -2.215074 -30.175038 -5.410737 -20.472203 -0.461659 5.203902 15.869497 0.517807 -0.247535 -4.126099 0.204100 2.909000 8.025500 -4.481114 -3.060921 -1.423577 -3.855817 14.842178 -9.689314 0.204390 -3.528190 8.605835 4.879542 -20.238291 -9.611884 -4.732800 -13.076500 39.655400 11.302667 0.245078 -1.371532 1.703664 0.141125 -31.888368 -4.839626 -0.959921 -7.869066 9.740753 20.298130 -8.841214 2.337058 26.445854 4.720639 0.049300 13.244300 4.401400 0.704764 -9.375687 3.045033 26.805095 0.715405 -23.573058 17.575618 -28.376954 -4.466134 1.162650 0.487630 -56.299376 21.682280 -13.704867 -4.860400 -7.125000 0.000000 0.000000 -4.608100 16.095700 3.160300 0.526615 11.192052 6.023876 -21.663153 -36.936916 -27.975451 -132.088281 50.030186 -93.459388 1.640298 -0.586212 -64.124531 -6.776658 -45.112854 4.799200 7.125000 0.000000 0.000000 43.843500 -68.817900 -26.863200 
5.593967 17.693850 1.504698 0.369348 3.905303 25.205506 2.955856 1.142019 -2.216149 -30.295147 -5.365798 -20.536330 -0.462057 5.204440 15.863634 0.520995 -0.277793 -4.034755 0.211600 2.961400 8.171400 -4.484952 -3.045366 -1.426977 -4.017378 14.957622 -9.745143 0.204302 -3.537927 8.624314 4.867274 -20.204075 -9.716557 -4.767500 -13.117100 39.808400 11.048240 0.214317 -1.151461 1.719568 0.145452 -31.870371 -4.696490 -0.942749 -7.972710 9.743375 20.299279 -8.871481 2.295616 26.448338 4.723888 0.040200 13.243500 4.408800 0.700060 -9.371772 3.038315 26.824793 0.729047 -23.792429 17.563027 -28.356249 -4.457772 1.147868 0.471030 -56.290595 21.145077 -13.640951 -4.706700 -7.125000 0.000000 0.000000 -4.961700 16.211000 3.392100 0.525796 11.186004 6.024467 -21.669671 -36.941533 -28.055961 -132.079681 50.034512 -93.456028 1.641450 -0.593230 -64.191270 -7.050715 -45.264284 4.996800 7.125000 0.000000 0.000000 43.866100 -69.004200 -27.051900 
5.594372 17.692430 1.505003 0.447558 3.873780 25.181887 2.952122 1.146382 -2.213602 -30.400479 -5.278569 -20.520725 -0.459624 5.203135 15.867476 0.552758 -0.421013 -4.059654 0.225500 3.056600 8.436300 -4.489052 -3.041036 -1.427059 -4.113954 14.970570 -9.757656 0.199711 -3.563896 8.691924 4.844690 -20.130915 -9.727955 -4.771500 -13.121700 39.825800 10.981330 0.214290 -1.159666 1.668648 0.128612 -31.824387 -4.668573 -0.939073 -7.926259 9.719142 20.295644 -9.074078 2.356630 26.436673 4.882093 0.086600 13.240200 4.477400 0.700510 -9.373978 3.032946 26.864375 0.788169 -23.817105 17.566416 -28.374006 -4.462085 1.146686 0.464426 -56.344307 21.000571 -13.711443 -4.695200 -7.125000 0.000000 0.000000 -5.058900 16.153900 3.465400 0.537263 11.192363 6.027051 -21.651054 -36.979196 -28.184998 -132.004074 50.061836 -93.394675 1.645301 -0.578798 -64.111223 -6.542947 -45.249477 4.655600 7.125000 0.000000 0.000000 44.321400 -68.839000 -27.217000 
5.592242 17.691517 1.497697 0.566580 3.802088 25.210664 2.949025 1.148237 -2.215965 -30.540252 -5.273217 -20.546948 -0.463351 5.193209 15.836998 0.534574 -0.346518 -4.023437 0.219600 3.016500 8.324800 -4.499500 -3.031364 -1.426160 -4.283918 15.050407 -9.970514 0.182113 -3.665877 8.938169 4.853582 -20.173192 -9.626983 -4.750300 -13.097000 39.732700 10.856192 0.205220 -1.055919 1.596948 0.113362 -31.854357 -4.606467 -0.934764 -8.013851 9.733842 20.297862 -9.125138 2.356331 26.436963 4.915059 0.090700 13.240600 4.494800 0.708533 -9.374079 3.030892 26.897799 0.853149 -23.666834 17.573868 -28.399912 -4.469148 1.149513 0.466020 -56.358579 21.066090 -13.743040 -4.721800 -7.125000 0.000000 0.000000 -5.016500 16.116300 3.440200 0.538996 11.188747 6.025860 -21.586722 -36.988579 -28.231516 -131.972242 50.069229 -93.369005 1.644825 -0.565586 -63.972760 -6.000407 -45.091174 4.278800 7.125000 0.000000 0.000000 44.544400 -68.568100 -27.117800 
